<svg aria-hidden="true" style="position: absolute; width: 0; height: 0; overflow: hidden;" version="1.1" xmlns="http://www.w3.org/2000/svg" xmlns:xlink="http://www.w3.org/1999/xlink">
<defs>
<symbol id="logo" viewBox="0 0 32 32">
<path fill="#f7fbfb" style="fill: var(--color1, #f7fbfb)" d="M27.216 7.082l-8.832-4.926c-0.642-0.358-1.488-0.556-2.384-0.556s-1.742 0.198-2.384 0.556l-8.832 4.926c-1.336 0.746-2.384 2.499-2.384 3.99v9.856c0 1.491 1.047 3.244 2.384 3.99l8.832 4.926c0.642 0.358 1.489 0.555 2.384 0.555s1.742-0.198 2.384-0.555l8.832-4.928c1.337-0.746 2.384-2.499 2.384-3.99v-9.856c0-1.488-1.047-3.242-2.384-3.988zM5.278 24.090c-1.024-0.57-1.89-2.020-1.89-3.163v-4.212c3.144-0.238 5.007 0.566 7.333 1.578 2.093 0.911 4.61 2.004 8.722 2.592-0.768 0.143-1.544 0.274-2.318 0.404-4.2 0.708-8.172 1.382-10.344 3.641l-1.503-0.838zM18.543 15.518c-1.898 0.729-4.37 1.382-8.024 1.642-1.616-0.694-3.155-1.28-5.17-1.416l6.715-6.488 6.479 6.262zM18.074 13.716l4.828-4.666 3.63 3.506c-2.089 0.184-3.552 0.899-5.173 1.696-0.565 0.278-1.166 0.573-1.834 0.865l-1.45-1.402zM28.612 20.927c0 1.144-0.866 2.592-1.89 3.164l-8.832 4.927c-0.486 0.272-1.174 0.429-1.89 0.429s-1.404-0.155-1.89-0.428l-6.452-3.6c1.992-1.902 5.712-2.529 9.637-3.191 4.424-0.745 8.978-1.514 11.318-4.274v2.974zM28.612 16.17c-1.038 2.176-3.4 3.317-6.214 4.066-4.848-0.34-7.705-1.311-10.046-2.288 4.788-0.554 7.351-1.813 9.454-2.846 2.071-1.018 3.73-1.829 6.806-1.598v2.666zM28.612 12.548c-0.25-0.018-0.496-0.031-0.731-0.036l-4.629-4.474c-0.089-0.086-0.21-0.139-0.344-0.139-0.002 0-0.003 0-0.005 0h0c-0.135 0-0.258 0.053-0.349 0.139l0-0-5.177 5.003-4.965-4.796c-0.089-0.087-0.211-0.14-0.345-0.14-0.001 0-0.002 0-0.004 0h0c-0.135 0-0.258 0.054-0.349 0.14l0-0-7.742 7.482c-0.19 0.006-0.385 0.016-0.583 0.030v-4.685c0-1.144 0.866-2.592 1.89-3.164l8.832-4.928c0.488-0.272 1.176-0.427 1.89-0.427s1.404 0.156 1.89 0.428l8.832 4.927c1.024 0.572 1.89 2.021 1.89 3.164l-0.003 1.474z"></path>
</symbol>
<symbol id="icon-menu" viewBox="0 0 32 32">
<path fill="none" stroke="#f7fbfb" style="stroke: var(--color1, #f7fbfb)" stroke-linejoin="miter" stroke-linecap="round" stroke-miterlimit="10" stroke-width="2.4" d="M4.8 9.6h22.4M4.8 16h22.4M4.8 21.6h22.4"></path>
</symbol>
</defs>
</svg>
