<svg aria-hidden="true" style="position: absolute; width: 0; height: 0; overflow: hidden;" version="1.1" xmlns="http://www.w3.org/2000/svg" xmlns:xlink="http://www.w3.org/1999/xlink">
<defs>
<symbol id="logo" viewBox="0 0 32 32">
<path fill="#f7fbfb" style="fill: var(--color1, #f7fbfb)" d="M27.216 7.082l-8.832-4.926c-0.642-0.358-1.488-0.556-2.384-0.556s-1.742 0.198-2.384 0.556l-8.832 4.926c-1.336 0.746-2.384 2.499-2.384 3.99v9.856c0 1.491 1.047 3.244 2.384 3.99l8.832 4.926c0.642 0.358 1.489 0.555 2.384 0.555s1.742-0.198 2.384-0.555l8.832-4.928c1.337-0.746 2.384-2.499 2.384-3.99v-9.856c0-1.488-1.047-3.242-2.384-3.988zM5.278 24.090c-1.024-0.57-1.89-2.020-1.89-3.163v-4.212c3.144-0.238 5.007 0.566 7.333 1.578 2.093 0.911 4.61 2.004 8.722 2.592-0.768 0.143-1.544 0.274-2.318 0.404-4.2 0.708-8.172 1.382-10.344 3.641l-1.503-0.838zM18.543 15.518c-1.898 0.729-4.37 1.382-8.024 1.642-1.616-0.694-3.155-1.28-5.17-1.416l6.715-6.488 6.479 6.262zM18.074 13.716l4.828-4.666 3.63 3.506c-2.089 0.184-3.552 0.899-5.173 1.696-0.565 0.278-1.166 0.573-1.834 0.865l-1.45-1.402zM28.612 20.927c0 1.144-0.866 2.592-1.89 3.164l-8.832 4.927c-0.486 0.272-1.174 0.429-1.89 0.429s-1.404-0.155-1.89-0.428l-6.452-3.6c1.992-1.902 5.712-2.529 9.637-3.191 4.424-0.745 8.978-1.514 11.318-4.274v2.974zM28.612 16.17c-1.038 2.176-3.4 3.317-6.214 4.066-4.848-0.34-7.705-1.311-10.046-2.288 4.788-0.554 7.351-1.813 9.454-2.846 2.071-1.018 3.73-1.829 6.806-1.598v2.666zM28.612 12.548c-0.25-0.018-0.496-0.031-0.731-0.036l-4.629-4.474c-0.089-0.086-0.21-0.139-0.344-0.139-0.002 0-0.003 0-0.005 0h0c-0.135 0-0.258 0.053-0.349 0.139l0-0-5.177 5.003-4.965-4.796c-0.089-0.087-0.211-0.14-0.345-0.14-0.001 0-0.002 0-0.004 0h0c-0.135 0-0.258 0.054-0.349 0.14l0-0-7.742 7.482c-0.19 0.006-0.385 0.016-0.583 0.030v-4.685c0-1.144 0.866-2.592 1.89-3.164l8.832-4.928c0.488-0.272 1.176-0.427 1.89-0.427s1.404 0.156 1.89 0.428l8.832 4.927c1.024 0.572 1.89 2.021 1.89 3.164l-0.003 1.474z"></path>
</symbol>
<symbol id="telegram" viewBox="0 0 32 32">
<path fill="#f7fbfb" style="fill: var(--color1, #f7fbfb)" d="M15.992 2.666c-7.364 0-13.333 5.969-13.333 13.333s5.969 13.333 13.333 13.333v0c7.363 0 13.333-5.969 13.333-13.333s-5.969-13.333-13.333-13.333v0zM20.232 22.87c-0.143 0.349-0.48 0.591-0.873 0.591-0.17 0-0.33-0.045-0.467-0.124l0.005 0.002-3.619-2.814-2.322 2.144c-0.066 0.049-0.148 0.078-0.238 0.078-0.051 0-0.1-0.010-0.145-0.027l0.003 0.001 0.445-3.986 0.014 0.012 0.010-0.078s6.513-5.93 6.778-6.183c0.27-0.252 0.18-0.306 0.18-0.306 0.016-0.306-0.482 0-0.482 0l-8.63 5.552-3.594-1.224s-0.552-0.198-0.604-0.634c-0.054-0.432 0.622-0.666 0.622-0.666l14.29-5.678s1.174-0.522 1.174 0.344l-2.544 12.995z"></path>
</symbol>
<symbol id="instagram" viewBox="0 0 32 32">
<path fill="#f7fbfb" style="fill: var(--color1, #f7fbfb)" d="M10.4 2.666h11.2c4.267 0 7.734 3.467 7.734 7.734v11.2c0 0 0 0.001 0 0.001 0 4.271-3.462 7.733-7.733 7.733h-11.201c-4.267 0-7.734-3.467-7.734-7.734v-11.2c0-4.271 3.463-7.733 7.734-7.733v0zM10.134 5.334c-2.651 0-4.8 2.149-4.8 4.8v0 11.734c0 2.653 2.147 4.8 4.8 4.8h11.734c2.651 0 4.8-2.149 4.8-4.8v0-11.734c0-2.654-2.146-4.8-4.8-4.8h-11.734zM23.001 7.334c0.92 0 1.666 0.746 1.666 1.666s-0.746 1.666-1.666 1.666v0c-0.92 0-1.666-0.746-1.666-1.666s0.746-1.666 1.666-1.666v0zM16.001 9.334c3.682 0 6.666 2.985 6.666 6.666s-2.985 6.666-6.666 6.666v0c-3.682 0-6.666-2.985-6.666-6.666s2.985-6.666 6.666-6.666v0zM16 12c-2.209 0-4 1.791-4 4s1.791 4 4 4v0c2.209 0 4-1.791 4-4s-1.791-4-4-4v0z"></path>
</symbol>
<symbol id="facebook" viewBox="0 0 32 32">
<path fill="#f7fbfb" style="fill: var(--color1, #f7fbfb)" d="M16 2.72c-7.333 0-13.333 5.986-13.333 13.36 0 6.666 4.88 12.2 11.254 13.2v-9.334h-3.387v-3.866h3.387v-2.946c0-3.347 1.986-5.187 5.040-5.187 1.453 0 2.973 0.254 2.973 0.254v3.294h-1.68c-1.653 0-2.173 1.026-2.173 2.080v2.506h3.706l-0.6 3.866h-3.106v9.334c6.415-1.042 11.253-6.541 11.253-13.17 0-0.010 0-0.021-0-0.031v0.002c0-7.374-6-13.36-13.333-13.36z"></path>
</symbol>
<symbol id="star_small" viewBox="0 0 32 32">
<path fill="#f7fbfb" style="fill: var(--color1, #f7fbfb)" d="M15.366 4.618c0.199-0.614 1.069-0.614 1.268 0l2.21 6.801c0.089 0.275 0.345 0.461 0.634 0.461h7.151c0.646 0 0.914 0.826 0.392 1.206l-5.785 4.203c-0.234 0.17-0.331 0.471-0.242 0.745l2.21 6.801c0.2 0.614-0.503 1.125-1.026 0.745l-5.785-4.203c-0.234-0.17-0.55-0.17-0.784 0l-5.785 4.203c-0.522 0.38-1.225-0.131-1.026-0.745l2.21-6.801c0.089-0.275-0.009-0.576-0.242-0.745l-5.785-4.203c-0.522-0.38-0.254-1.206 0.392-1.206h7.151c0.289 0 0.545-0.186 0.634-0.461l2.21-6.801z"></path>
</symbol>
<symbol id="next" viewBox="0 0 32 32">
<path fill="#a3a5a3" style="fill: var(--color1, #a3a5a3)" d="M12.205 26.4c0.265-0.004 0.519-0.104 0.712-0.283l9.991-9.844c0.188-0.187 0.293-0.439 0.293-0.701s-0.105-0.515-0.293-0.701l-9.991-9.844c-0.194-0.157-0.44-0.237-0.691-0.225s-0.488 0.116-0.666 0.291c-0.178 0.175-0.283 0.409-0.295 0.656s0.069 0.49 0.228 0.681l9.291 9.143-9.291 9.143c-0.188 0.187-0.293 0.439-0.293 0.701s0.105 0.515 0.293 0.701c0.193 0.179 0.447 0.28 0.712 0.283z"></path>
</symbol>
<symbol id="prev" viewBox="0 0 32 32">
<path fill="#a3a5a3" style="fill: var(--color1, #a3a5a3)" d="M19.795 26.4c-0.265-0.004-0.519-0.104-0.712-0.283l-9.991-9.844c-0.188-0.187-0.293-0.439-0.293-0.701s0.105-0.515 0.293-0.701l9.991-9.844c0.194-0.157 0.44-0.237 0.691-0.225s0.488 0.116 0.666 0.291c0.178 0.175 0.283 0.409 0.295 0.656s-0.069 0.49-0.228 0.681l-9.291 9.143 9.291 9.143c0.188 0.187 0.293 0.439 0.293 0.701s-0.105 0.515-0.293 0.701c-0.193 0.179-0.447 0.28-0.712 0.283z"></path>
</symbol>
<symbol id="round" viewBox="0 0 32 32">
<path d="M15.999 9.333c-7.36 0-13.333 2.987-13.333 6.667 0 2.987 3.92 5.507 9.333 6.36v2.693c0 0.6 0.72 0.893 1.133 0.467l3.72-3.72c0.267-0.267 0.267-0.68 0-0.947l-3.72-3.72c-0.094-0.092-0.213-0.154-0.342-0.179s-0.263-0.010-0.384 0.041c-0.121 0.051-0.225 0.137-0.297 0.247s-0.111 0.239-0.11 0.37v2.027c-4.2-0.747-6.667-2.533-6.667-3.64 0-1.413 4.053-4 10.667-4s10.667 2.587 10.667 4c0 0.88-1.6 2.24-4.427 3.12-0.547 0.173-0.907 0.68-0.907 1.253 0 0.893 0.867 1.547 1.707 1.28 3.773-1.173 6.293-3.267 6.293-5.653 0-3.68-5.973-6.667-13.333-6.667z"></path>
</symbol>
</defs>
</svg>
